<?xml version="1.0" encoding="UTF-8" standalone="no"?>
<svg xmlns="http://www.w3.org/2000/svg" height="400px" width="400px"><g transform="translate(80,25)"><g dy="5em" text-anchor="middle" font-family="sans-serif" font-size="10" fill="none" transform="translate(0,325)" class="axis axis--x"><path d="M0.5,6V0.5H295.5V6" stroke="#000" class="domain"></path><g transform="translate(41,0)" opacity="1" class="tick"><line x2="0.5" x1="0.5" y2="6" stroke="#000"></line><text dy="0.71em" x="0.5" y="9" fill="#000"><tspan dy="0.71em" y="9" x="0">hybrid   OA</tspan></text></g><g transform="translate(112,0)" opacity="1" class="tick"><line x2="0.5" x1="0.5" y2="6" stroke="#000"></line><text dy="0.71em" x="0.5" y="9" fill="#000"><tspan dy="0.71em" y="9" x="0">fully   OA</tspan></text></g><g transform="translate(183,0)" opacity="1" class="tick"><line x2="0.5" x1="0.5" y2="6" stroke="#000"></line><text dy="0.71em" x="0.5" y="9" fill="#000"><tspan dy="0.71em" y="9" x="0">PeerJ</tspan></text></g><g transform="translate(254,0)" opacity="1" class="tick"><line x2="0.5" x1="0.5" y2="6" stroke="#000"></line><text dy="0.71em" x="0.5" y="9" fill="#000"><tspan dy="0.71em" y="9" x="0">community -</tspan><tspan dy="1.81em" y="9" x="0">sponsored</tspan></text></g></g><g text-anchor="end" font-family="sans-serif" font-size="10" fill="none" class="axis axis--y"><path d="M-6,325.5H0.5V0.5H-6" stroke="#000" class="domain"></path><g transform="translate(0,325)" opacity="1" class="tick"><line y2="0.5" y1="0.5" x2="-6" stroke="#000"></line><text dy="0.32em" y="0.5" x="-9" fill="#000">0</text></g><g transform="translate(0,217)" opacity="1" class="tick"><line y2="0.5" y1="0.5" x2="-6" stroke="#000"></line><text dy="0.32em" y="0.5" x="-9" fill="#000">1,000</text></g><g transform="translate(0,108)" opacity="1" class="tick"><line y2="0.5" y1="0.5" x2="-6" stroke="#000"></line><text dy="0.32em" y="0.5" x="-9" fill="#000">2,000</text></g><g transform="translate(0,0)" opacity="1" class="tick"><line y2="0.5" y1="0.5" x2="-6" stroke="#000"></line><text dy="0.32em" y="0.5" x="-9" fill="#000">3,000</text></g><text text-anchor="end" dy="1em" transform="rotate(-90)"></text></g><rect height="325" width="64" y="0" x="9" fill="#aa4400" class="bar"></rect><rect height="195" width="64" y="130" x="80" fill="#aa4400" class="bar"></rect><rect height="125" width="64" y="200" x="151" fill="#aa4400" class="bar"></rect><rect height="5" width="64" y="320" x="222" fill="#aa4400" class="bar"></rect></g><g class="label--y"><text dy="1.2em" transform="rotate(-90)" y="0" x="-375">Article Processing Charges (APC) in USD</text></g></svg>
